<?xml version="1.0" standalone="no"?>
<!DOCTYPE svg PUBLIC "-//W3C//DTD SVG 20010904//EN"
 "http://www.w3.org/TR/2001/REC-SVG-20010904/DTD/svg10.dtd">
<svg version="1.0" xmlns="http://www.w3.org/2000/svg"
 width="423.000000pt" height="423.000000pt" viewBox="0 0 423.000000 423.000000"
 preserveAspectRatio="xMidYMid meet">
<metadata>
Created by potrace 1.14, written by Peter Selinger 2001-2017
</metadata>
<g transform="translate(0.000000,423.000000) scale(0.100000,-0.100000)"
fill="#000000" stroke="none">
<path d="M1812 4204 c-200 -23 -402 -84 -597 -180 -111 -54 -128 -64 -207
-119 -110 -77 -249 -221 -333 -346 -35 -52 -69 -106 -75 -120 -5 -13 -14 -31
-19 -39 -12 -19 -63 -130 -66 -144 -1 -6 -7 -22 -12 -36 -18 -44 -52 -173 -59
-225 -3 -27 -8 -59 -10 -70 -12 -62 -15 -243 -5 -325 13 -116 17 -137 38 -224
14 -61 26 -97 58 -181 5 -11 -8 0 -28 25 -54 66 -131 231 -183 389 -25 76 -53
146 -63 155 -39 36 -110 30 -137 -11 -18 -29 -58 -183 -78 -303 -16 -96 -23
-404 -12 -495 3 -22 8 -67 11 -99 3 -33 15 -98 26 -145 11 -47 22 -93 24 -102
9 -45 64 -204 92 -269 32 -75 116 -237 144 -278 16 -24 29 -45 29 -47 0 -6 72
-108 81 -115 3 -3 10 -12 15 -22 22 -41 189 -218 290 -308 44 -40 210 -160
279 -204 86 -53 261 -136 371 -175 107 -38 109 -40 109 -70 0 -19 6 -33 15
-35 110 -31 276 -62 395 -75 82 -9 407 -7 460 3 35 7 74 13 130 21 63 10 239
55 249 65 5 5 -5 7 -23 4 -25 -4 -31 -2 -31 14 0 14 12 21 53 31 141 32 363
129 502 219 230 148 363 300 445 508 72 186 84 252 85 474 0 191 -8 350 -21
400 -4 14 -4 22 -1 19 6 -5 24 -90 42 -199 3 -19 8 -105 11 -190 5 -126 10
-161 25 -186 30 -50 82 -66 136 -42 39 18 48 31 83 128 58 159 100 374 115
595 7 103 8 409 1 455 -3 19 -8 58 -10 85 -26 249 -152 599 -295 820 -25 39
-50 79 -57 91 -6 11 -20 31 -31 45 -12 13 -48 58 -81 100 -79 98 -222 234
-347 330 -282 215 -653 365 -1000 405 -108 12 -417 11 -533 -2z"/>
</g>
</svg>
